<svg width="466" height="111" viewBox="0 0 466 111" fill="none" xmlns="http://www.w3.org/2000/svg">
<g clip-path="url(#clip0_209_2261)">
<path d="M35.2193 48.704L29.6531 49.3914L29.4344 47.5675L16.6256 49.1439L16.8443 50.9586L11.278 51.646L10.1392 42.2608C8.65428 43.159 7.03268 44.0847 5.26532 45.0379L0.901579 40.8861C5.27443 39.0438 9.20999 36.8259 12.6809 34.2229C11.114 33.2331 9.60173 32.3624 8.14411 31.6017C7.24221 32.4082 6.149 33.2881 4.87358 34.2596L0.00878906 31.0884C5.89392 26.9916 9.92969 22.7389 12.1161 18.3304L18.0468 18.193C17.7279 18.9995 17.3909 19.7602 17.0447 20.4934L28.3321 19.1003L28.8969 23.7196C26.5101 27.6606 23.7315 31.1618 20.5612 34.2413L33.2971 32.674L35.2467 48.6857L35.2193 48.704ZM11.8793 27.9448C13.847 28.8155 15.578 29.6678 17.072 30.5202C18.894 28.7696 20.5976 26.8358 22.201 24.7186L13.7013 25.7634C13.0909 26.5517 12.4805 27.2849 11.8793 27.9448ZM28.8332 42.6549L28.2774 38.109L15.4686 39.6854L16.0244 44.2314L28.8332 42.6549Z" fill="#333333"/>
<path d="M45.8874 39.5204C44.7942 42.0225 43.209 44.543 41.1137 47.0909L37.9343 42.6824C39.8474 40.7211 41.4143 38.7047 42.6351 36.6426L38.9819 37.0917L37.4879 24.7919L43.8194 24.0129L43.6281 22.4456L36.5769 23.3163L35.9756 18.4038L43.0268 17.5331L42.6988 14.8018L48.1285 14.1328L48.4473 16.754L54.5238 16.0025L55.1341 21.025L49.0577 21.7766L49.249 23.3438L55.1068 22.6198L56.0816 30.621C56.2911 32.3441 56.2638 33.4531 56.0087 33.9572C55.7536 34.4612 54.9701 34.7912 53.6674 34.947L52.7655 35.057C54.0045 36.2118 55.535 37.3116 57.357 38.3656L55.954 43.7456C53.7949 42.0684 52.1369 40.5561 50.9981 39.218L51.9365 46.8984L46.8713 47.5217L45.8965 39.5204H45.8874ZM43.2728 35.5244C43.9469 34.2321 44.4935 32.8848 44.9126 31.4825L44.5482 28.458L42.4529 28.7146L43.2819 35.5152L43.2728 35.5244ZM50.1054 31.9866C50.8159 33.004 51.5448 33.893 52.3009 34.6354L50.7795 30.8685L51.5721 30.7677C51.982 30.7127 52.1551 30.4102 52.0822 29.8511L51.7998 27.5598L49.5952 27.8348L50.0962 31.9866H50.1054ZM63.151 36.2485L58.2316 36.8534L55.699 16.0391L60.6184 15.4342L63.151 36.2485ZM70.758 38.4939C71.0221 40.7028 70.8491 42.2425 70.2205 43.1224C69.5919 44.0022 68.2162 44.5705 66.0936 44.8271L62.3311 45.2945L60.4818 40.3545L63.9527 39.9237C64.6269 39.8412 65.0459 39.6396 65.2008 39.328C65.3192 39.1172 65.3466 38.7047 65.2737 38.0998L62.2309 13.0971L67.5876 12.4372L70.758 38.4939Z" fill="#333333"/>
<path d="M107.736 38.5489L75.6862 42.4991L75.012 36.9267L88.249 35.2953L87.42 28.4947L77.5082 29.7137L76.8614 24.4345L86.7732 23.2155L86.0353 17.1756L73.7002 18.6971L73.0352 13.2346L103.308 9.50434L103.973 14.9668L91.8931 16.4516L92.631 22.4915L102.251 21.3091L102.898 26.5883L93.2778 27.7706L94.1068 34.5712L107.052 32.9765L107.726 38.5489H107.736Z" fill="#333333"/>
<path d="M130.539 13.1796C128.188 13.7662 125.747 14.4994 123.205 15.3792C121.401 21.245 119.242 26.8266 116.728 32.1333L111.389 30.1719C113.621 26.1575 115.48 22.0515 116.974 17.8447C115.115 18.6879 113.548 19.4761 112.264 20.2001L109.904 15.3151C113.011 13.8761 116.008 12.6022 118.914 11.5115C119.488 9.20188 119.925 6.97474 120.235 4.8484L125.975 5.28833C125.665 6.5348 125.3 7.91875 124.9 9.44935C126.548 8.92693 127.961 8.47783 129.145 8.11122L130.53 13.1888L130.539 13.1796ZM143.229 29.7136L140.742 35.1945C139.485 34.1405 137.863 33.0864 135.877 32.0233C135.394 35.3044 133.162 37.1925 129.19 37.6874C126.776 37.9807 124.763 37.6874 123.132 36.7709C121.419 35.7994 120.445 34.3146 120.208 32.3257C119.953 30.2636 120.518 28.5588 121.893 27.2024C123.187 25.9376 124.982 25.1585 127.305 24.8744C127.951 24.7919 128.671 24.7553 129.455 24.7553C129.19 23.188 129.054 21.9324 129.036 21.0067C129.017 19.0637 129.373 17.7164 130.083 16.9648L134.656 18.917C134.42 19.806 134.392 20.9975 134.574 22.4731C134.647 23.1055 134.866 24.1595 135.221 25.6443C138.146 26.515 140.815 27.8714 143.238 29.7136H143.229ZM130.347 29.7136C129.382 29.4662 128.589 29.3745 127.97 29.457C126.139 29.6862 125.291 30.3919 125.437 31.5742C125.565 32.619 126.466 33.0315 128.161 32.8298C129.127 32.7107 129.773 32.3807 130.101 31.8491C130.366 31.3726 130.448 30.6577 130.356 29.7136H130.347ZM141.68 14.5727L138.947 19.5311C136.861 17.4964 134.438 15.8742 131.677 14.6644L134.283 10.1001C137.144 11.0808 139.612 12.5747 141.689 14.5819L141.68 14.5727Z" fill="#333333"/>
<path d="M176.307 19.7236C176.717 23.0964 175.578 26.0842 172.882 28.678C170.54 30.9326 167.334 32.6374 163.262 33.7738L159.408 29.2646C162.724 28.3847 165.339 27.294 167.234 25.9742C169.511 24.3887 170.531 22.6289 170.295 20.6859C170.203 19.9619 169.848 19.3661 169.229 18.8987C168.609 18.4313 167.853 18.2571 166.96 18.3671C165.084 18.5962 163.252 19.5586 161.476 21.2633C159.873 22.7664 158.606 24.5628 157.686 26.6433L152.339 26.7808C151.792 21.7032 151.1 15.2234 150.271 7.35051L156.092 6.89225C156.229 9.23855 156.538 13.2621 157.012 18.9628C159.772 15.4709 163.088 13.4912 166.969 13.0055C169.475 12.6938 171.597 13.1979 173.319 14.4994C175.041 15.8008 176.043 17.5422 176.307 19.7236ZM167.461 5.27001L163.963 10.0176C161.166 7.77211 158.123 5.99406 154.835 4.67427L158.051 -0.0091629C161.203 1.18232 164.346 2.93287 167.47 5.26084L167.461 5.27001Z" fill="#333333"/>
<path d="M91.4382 80.1498C81.9819 81.3138 73.5004 82.8536 65.9663 84.76L64.7 79.1508C68.1345 78.381 72.6532 77.4919 78.2559 76.4838C79.3035 76.2821 80.6883 76.0347 82.3919 75.7505C82.4556 72.0295 82.4465 68.6383 82.3645 65.5955C75.4408 67.0161 69.665 68.2534 65.0462 69.3166L63.707 63.7166C66.2123 63.3592 69.9566 62.6626 74.9398 61.6269C78.5018 60.8937 81.7177 60.1697 84.5874 59.4456L88.5594 60.9854C88.3316 67.346 88.195 71.9378 88.1403 74.779C88.8145 74.669 89.5706 74.5499 90.4087 74.4216L91.4382 80.1315V80.1498Z" fill="#333333"/>
<path d="M110.432 60.1147L106.797 64.9173C104.62 62.9193 101.905 61.0404 98.6621 59.2715L102.051 54.5697C105.194 56.027 107.982 57.8784 110.432 60.1147ZM127.969 62.6901C125.136 66.3379 121.938 69.9581 118.367 73.5509C114.805 77.1437 111.216 80.3882 107.608 83.2935L103.09 79.0134C106.934 76.2271 110.76 72.9368 114.55 69.1424C118.085 65.6047 121.337 61.7828 124.316 57.6676L127.978 62.681L127.969 62.6901Z" fill="#333333"/>
<path d="M163.7 74.834C158.871 75.9705 154.143 76.8229 149.506 77.3911C146.536 77.7577 144.395 77.7119 143.065 77.2628C141.171 76.6121 140.077 75.0173 139.768 72.4969L137.08 50.702L142.865 49.9871C142.974 51.2794 143.32 54.6064 143.894 59.9772C147.958 57.3376 151.574 54.4231 154.763 51.2519L159.245 55.1655C154.972 58.8957 150.071 62.4152 144.523 65.733L144.969 69.4082C145.115 70.5997 145.443 71.3604 145.962 71.7087C146.482 72.0478 147.393 72.1395 148.695 71.9836C150.29 71.7912 152.549 71.3879 155.492 70.7738C158.571 70.1506 160.967 69.5824 162.661 69.0783L163.691 74.8249L163.7 74.834ZM160.639 50.6103L158.179 52.3884C157.268 50.9495 156.093 49.5655 154.663 48.2457L156.922 46.6051C158.425 47.8974 159.664 49.2356 160.639 50.6195V50.6103ZM164.374 47.7875L161.923 49.6388C160.803 48.0807 159.564 46.7426 158.206 45.6245L160.484 43.8647C161.887 44.9004 163.181 46.2019 164.374 47.7783V47.7875Z" fill="#333333"/>
<path d="M202.572 66.0537C201.552 66.1546 200.204 66.3104 198.518 66.512C189.281 67.6485 180.334 69.3166 171.671 71.5162L170.568 65.7421C181.318 63.3867 191.64 61.4986 201.524 60.078L202.581 66.0446L202.572 66.0537ZM194.847 51.7193C192.542 52.3242 189.353 53.0391 185.272 53.8548C181.783 54.5514 178.367 55.1746 175.032 55.7062L174.012 49.9963C176.226 49.7213 179.423 49.1806 183.578 48.374C187.231 47.65 190.62 46.8434 193.744 45.9361L194.847 51.7102V51.7193Z" fill="#333333"/>
<path d="M234.941 43.3057C230.996 43.8647 227.881 45.2212 225.594 47.375C223.116 49.7213 222.059 52.4159 222.424 55.4496C222.715 57.8509 223.817 59.6473 225.721 60.8387C227.498 61.9477 230.322 62.7359 234.194 63.1942L231.88 69.2066C227.707 68.7392 224.309 67.5752 221.695 65.733C218.67 63.5975 216.93 60.6738 216.475 56.9618C216.238 55.0463 216.466 53.1308 217.131 51.2336C217.796 49.3364 218.816 47.6775 220.164 46.2844C214.571 47.9616 210.253 49.5288 207.228 50.977L204.75 45.4137C209.096 43.8922 213.997 42.3891 219.472 40.9044C224.118 39.6396 228.792 38.5397 233.492 37.5866L234.923 43.324L234.941 43.3057ZM233.729 51.5085L231.27 53.2866C230.359 51.8476 229.183 50.4637 227.753 49.1439L230.012 47.5033C231.515 48.7956 232.754 50.1338 233.729 51.5177V51.5085ZM237.464 48.6765L235.014 50.5279C233.893 48.9698 232.654 47.6316 231.297 46.5135L233.583 44.7538C234.977 45.7894 236.28 47.0909 237.474 48.6673L237.464 48.6765Z" fill="#333333"/>
<path d="M275.425 63.4692L269.859 64.1565L269.64 62.3418L256.832 63.9183L257.05 65.733L251.484 66.4204L250.345 57.0352C248.86 57.9334 247.239 58.8591 245.471 59.8122L241.108 55.6604C245.48 53.8182 249.416 51.6002 252.887 48.9973C251.32 48.0074 249.808 47.1367 248.35 46.376C247.439 47.1734 246.355 48.0624 245.08 49.0339L240.215 45.8628C246.1 41.7659 250.136 37.5132 252.322 33.1048L258.253 32.9673C257.934 33.7738 257.597 34.5346 257.251 35.2678L268.538 33.8747L269.103 38.4939C266.716 42.435 263.938 45.9361 260.767 49.0156L273.503 47.4484L275.453 63.46L275.425 63.4692ZM252.085 42.7099C254.053 43.5806 255.784 44.433 257.278 45.2854C259.1 43.5348 260.804 41.6009 262.407 39.4838L253.907 40.5286C253.297 41.3168 252.687 42.05 252.085 42.7099ZM269.039 57.4201L268.483 52.8742L255.675 54.4506L256.23 58.9965L269.039 57.4201Z" fill="#333333"/>
<path d="M286.093 54.2856C285 56.7877 283.415 59.3081 281.32 61.8561L278.14 57.4476C280.053 55.4862 281.62 53.4699 282.841 51.3986L279.188 51.8477L277.694 39.5479L284.025 38.7689L283.834 37.2016L276.783 38.0723L276.182 33.1598L283.233 32.2891L282.905 29.5578L288.335 28.8888L288.653 31.51L294.73 30.7585L295.34 35.781L289.264 36.5326L289.455 38.0998L295.313 37.3758L296.288 45.377C296.497 47.1001 296.47 48.2091 296.215 48.7132C295.96 49.2172 295.176 49.5472 293.873 49.703L292.972 49.813C294.211 50.9678 295.741 52.0676 297.563 53.1216L296.16 58.5016C294.001 56.8244 292.343 55.3121 291.204 53.974L292.143 61.6544L287.077 62.2777L286.103 54.2764L286.093 54.2856ZM283.479 50.2896C284.153 48.9973 284.7 47.65 285.119 46.2477L284.754 43.2232L282.659 43.4798L283.488 50.2804L283.479 50.2896ZM290.321 46.7518C291.031 47.7691 291.76 48.6582 292.516 49.4005L290.995 45.6336L291.787 45.5328C292.197 45.487 292.37 45.1754 292.297 44.6163L292.015 42.325L289.81 42.5999L290.311 46.7518H290.321ZM303.357 51.0136L298.438 51.6185L295.905 30.8043L300.824 30.1994L303.357 51.0136ZM310.973 53.2591C311.237 55.4679 311.064 57.0077 310.436 57.8875C309.807 58.7674 308.431 59.3356 306.309 59.5923L302.546 60.0597L300.697 55.1196L304.168 54.6889C304.842 54.6064 305.261 54.4048 305.416 54.0931C305.534 53.8823 305.562 53.4699 305.489 52.865L302.446 27.8623L307.803 27.2024L310.973 53.2591Z" fill="#333333"/>
<path d="M335.953 39.2455C336.163 40.996 336.245 43.2323 336.181 45.9544C336.126 48.6857 335.953 50.6928 335.671 51.9851C335.325 53.5341 334.833 54.643 334.204 55.3213C333.575 55.9995 332.646 56.4303 331.425 56.6044C329.931 56.8152 328.128 56.5769 326.014 55.9078L325.358 50.1887C326.843 50.7662 327.982 51.0136 328.747 50.9128C329.521 50.8211 330.004 50.2987 330.214 49.3639C330.442 48.2274 330.587 46.7243 330.651 44.8363C330.688 43.1132 330.642 41.7201 330.514 40.6844C330.378 39.5479 330.132 38.8239 329.795 38.5214C329.449 38.219 328.702 38.1365 327.545 38.2831L326.934 38.3564C325.313 45.9452 323.454 52.4342 321.377 57.8417L315.71 56.2103C318.079 51.1144 319.928 45.707 321.259 39.9787C318.999 40.7486 317.113 41.5185 315.592 42.2975L313.506 37.2383C316.43 36.111 319.364 35.112 322.315 34.2321C322.707 31.4459 322.98 28.623 323.117 25.7451L329.011 25.9009C328.793 27.3582 328.446 29.677 327.945 32.8665L328.128 32.8482C330.587 32.5182 332.391 32.8023 333.557 33.6913C334.824 34.6445 335.625 36.4867 335.953 39.2271V39.2455ZM339.26 29.0171L336.8 30.7951C335.889 29.3562 334.723 27.9723 333.284 26.6525L335.543 25.0119C337.046 26.3042 338.285 27.6423 339.26 29.0263V29.0171ZM348.197 40.9135L343.378 44.1672C341.283 39.6212 338.677 36.0285 335.571 33.3797L339.98 30.1077C343.478 33.1506 346.22 36.7525 348.197 40.9135ZM342.995 26.1942L340.581 28.0456C339.461 26.4875 338.222 25.1494 336.864 24.0312L339.151 22.2715C340.499 23.2613 341.784 24.572 343.004 26.1942H342.995Z" fill="#333333"/>
<path d="M276.3 106.619L268.056 107.636L268.356 110.148L262.963 110.808L259.629 83.4035C263.246 82.1937 266.881 80.6265 270.515 78.7018L274.424 82.762C271.126 84.6225 268.165 86.0339 265.541 86.9963L266.097 91.5422L274.087 90.5616L274.724 95.7674L266.735 96.7481L267.427 102.421L275.672 101.404L276.31 106.61L276.3 106.619ZM292.881 99.5527C293.181 102 293.063 103.631 292.516 104.438C291.979 105.244 290.585 105.785 288.344 106.06L285.884 106.362L283.616 101.322L286.148 101.01C286.868 100.918 287.269 100.662 287.342 100.24C287.387 99.9926 287.378 99.6168 287.315 99.1311L285.511 84.2834L280.81 84.8608L283.907 110.331L278.478 111L274.743 80.2874L290.294 78.3718L292.872 99.5527H292.881Z" fill="#333333"/>
<path d="M317.752 100.588C317.898 101.752 317.834 102.541 317.579 102.953C317.324 103.365 316.75 103.631 315.857 103.741L314.19 103.943L312.951 100.992L313.652 106.775L309.279 107.316L307.631 93.7419L306.401 93.8977L307.758 105.07L303.959 105.538L302.52 93.7144C302.802 99.296 302.274 103.961 300.916 107.728L296.307 103.934C297.582 99.516 297.792 93.8519 296.953 86.9413L295.696 76.6396L314.217 74.3575L315.593 85.6398L311.293 86.1714L311.575 88.4627L316.203 87.8945L317.752 100.597V100.588ZM309.926 81.9004L309.671 79.7924L301.536 80.7914L301.791 82.8994L309.926 81.9004ZM302.174 89.6175L306.838 89.0401L306.556 86.7488L301.891 87.3262L302.174 89.6175ZM312.75 99.3235L313.397 99.241C313.807 99.186 313.98 98.8836 313.907 98.3245L313.261 93.0453L311.994 93.2012L312.741 99.3144L312.75 99.3235ZM322.926 96.9956L318.59 97.5271L316.003 76.2363L320.339 75.7047L322.926 96.9956ZM329.604 99.3877C329.85 101.422 329.695 102.834 329.13 103.622C328.566 104.401 327.317 104.914 325.386 105.153L322.061 105.565L320.33 100.68L323.336 100.313C323.983 100.231 324.393 100.048 324.557 99.7543C324.676 99.5435 324.703 99.1585 324.639 98.5995L321.56 73.276L326.37 72.6802L329.622 99.3877H329.604Z" fill="#333333"/>
<path d="M362.082 75.4389C358.137 75.998 355.021 77.3545 352.735 79.5083C350.257 81.8546 349.2 84.5492 349.564 87.5829C349.856 89.9842 350.958 91.7805 352.862 92.972C354.639 94.081 357.463 94.8692 361.334 95.3275L359.021 101.34C354.848 100.872 351.459 99.7085 348.835 97.8662C345.811 95.7307 344.071 92.807 343.615 89.0951C343.378 87.1796 343.606 85.2641 344.271 83.3669C344.945 81.4605 345.957 79.8108 347.305 78.4176C341.711 80.0949 337.393 81.6621 334.369 83.1102L331.891 77.5469C336.236 76.0255 341.137 74.5224 346.613 73.0377C351.259 71.7729 355.932 70.673 360.633 69.7198L362.063 75.4573L362.082 75.4389ZM360.879 83.6418L358.419 85.4199C357.508 83.9809 356.342 82.597 354.903 81.2772L357.162 79.6366C358.665 80.9289 359.904 82.267 360.879 83.651V83.6418ZM364.614 80.8189L362.164 82.6703C361.043 81.1122 359.804 79.7741 358.447 78.6559L360.733 76.8962C362.136 77.9319 363.43 79.2333 364.623 80.8098L364.614 80.8189Z" fill="#333333"/>
<path d="M397.018 72.8727L397.383 77.996C395.779 78.1244 393.775 78.4543 391.37 78.9951C393.393 81.5063 395.406 83.706 397.419 85.6032L393.338 89.4709C390.14 88.5086 387.161 88.1969 384.41 88.5361C381.713 88.866 380.438 89.7 380.602 91.0382C380.784 92.5138 383.636 92.917 389.156 92.2388C390.241 92.1013 391.643 91.8814 393.365 91.5697L392.791 97.0689C391.115 97.3713 389.876 97.573 389.084 97.6738C380.21 98.7644 375.473 96.8489 374.872 91.9272C374.626 89.8925 375.254 88.1511 376.767 86.7213C378.279 85.2916 380.356 84.4117 382.98 84.0909C385.194 83.816 387.325 83.8984 389.357 84.3384C388.145 83.0094 387.016 81.708 385.977 80.434C381.969 81.6713 378.944 82.8994 376.922 84.1367L373.578 79.6366C375.692 78.7109 378.807 77.6294 382.916 76.383C382.889 76.3646 382.46 75.7414 381.622 74.5133C378.525 75.2373 375.683 75.6131 373.095 75.6406L370.891 70.5172C373.378 70.6822 375.983 70.5264 378.689 70.0773C377.96 68.8858 377.158 67.4835 376.302 65.8613L382.06 64.5965C382.798 66.0538 383.526 67.4102 384.246 68.6475C386.478 67.8593 388.136 66.9153 389.229 65.8155L392.782 69.9948C391.325 71.058 389.375 72.0387 386.934 72.9277C387.207 73.3584 387.635 74.0092 388.236 74.8707C392.053 73.835 394.969 73.166 396.991 72.8727H397.018Z" fill="#333333"/>
<path d="M435.983 81.7813C436.374 84.9799 435.454 87.6287 433.24 89.7275C431.2 91.6522 428.367 92.8437 424.75 93.2836C422.454 93.5678 420.486 93.3661 418.837 92.6787C416.979 91.8722 415.94 90.5616 415.713 88.7377C415.521 87.1613 415.977 85.7956 417.07 84.6592C418.163 83.5135 419.657 82.8261 421.534 82.597C423.274 82.3862 424.768 82.6336 426.034 83.3577C427.301 84.0726 428.184 85.2091 428.685 86.7397C429.87 85.5848 430.362 84.2284 430.17 82.6795C430.025 81.5155 429.487 80.599 428.549 79.9207C427.446 79.1417 425.952 78.8759 424.048 79.105C421.898 79.3708 419.958 80.104 418.218 81.3047C416.095 82.7711 413.973 85.2732 411.859 88.811L407.186 85.4382C411.531 79.5083 415.931 73.2118 420.377 66.5303C418.2 67.1444 415.148 68.0334 411.23 69.2066L409.645 63.7533C411.659 63.405 414.255 62.8368 417.425 62.0394C420.596 61.242 423.01 60.5546 424.686 59.9772L428.731 63.6525C425.378 68.2992 422.509 72.3503 420.113 75.7964C421.762 74.8524 423.465 74.275 425.224 74.055C428.239 73.6884 430.699 74.2016 432.612 75.6223C434.525 77.0337 435.636 79.0867 435.964 81.7813H435.983ZM424.686 88.7835C424.486 87.922 424.103 87.2804 423.538 86.8588C422.973 86.4372 422.336 86.2722 421.643 86.3547C420.678 86.4739 420.24 86.923 420.341 87.6928C420.477 88.7835 421.652 89.1959 423.866 88.921C424.158 88.8843 424.431 88.8385 424.695 88.7835H424.686Z" fill="#333333"/>
<path d="M457.565 83.4768L455.651 88.8843L449.083 86.5197L450.996 81.1489L457.555 83.4768H457.565ZM466 58.6941L457.583 80.8923L452.49 79.16L459.523 56.3936L466.01 58.6941H466Z" fill="#333333"/>
</g>
<defs>
<clipPath id="clip0_209_2261">
<rect width="466" height="111" fill="white"/>
</clipPath>
</defs>
</svg>
